<svg id="Layer_1" data-name="Layer 1" xmlns="http://www.w3.org/2000/svg" viewBox="0 0 78.42 32.9"><defs><style>.cls-1{fill:#b3b3b3;stroke:#4d4d4d;}.cls-1,.cls-3,.cls-4{stroke-miterlimit:10;stroke-width:0.5px;}.cls-2{fill:#e6e6e6;}.cls-3{fill:#c69c6d;}.cls-3,.cls-4{stroke:#7f4611;}.cls-4{fill:none;}</style></defs><polygon class="cls-1" points="0.25 5.94 2.03 5.94 3.82 5.94 5.6 5.94 7.38 5.94 9.17 5.94 10.95 5.94 12.73 5.94 14.52 5.94 16.3 5.94 18.08 5.94 19.87 5.94 21.65 5.94 23.43 5.94 25.22 5.94 27 5.94 28.78 5.94 30.57 5.94 32.35 5.94 34.13 5.94 35.91 5.94 37.7 5.94 39.48 5.94 41.27 5.94 43.05 5.94 44.83 5.94 46.62 5.94 48.4 5.94 50.18 5.94 51.96 5.94 53.75 5.94 55.53 5.94 57.31 5.94 57.31 6.53 57.31 7.12 57.31 7.7 57.31 8.29 57.31 8.88 57.31 9.46 57.31 10.05 57.31 10.64 57.31 11.22 57.31 11.81 57.31 12.4 57.31 12.98 57.31 13.57 57.31 14.16 57.31 14.74 57.31 15.33 57.31 15.92 57.31 16.5 57.31 17.09 57.31 17.68 57.31 18.27 57.31 18.85 57.31 19.44 57.31 20.03 57.31 20.61 57.31 21.2 57.31 21.79 57.31 22.37 57.31 22.96 57.31 23.55 57.31 24.14 57.31 24.72 55.53 24.29 53.75 22.86 51.96 23.43 50.18 22 48.4 22.57 46.62 21.14 44.83 21.71 43.05 20.28 41.27 20.85 39.48 19.42 37.7 19.99 35.91 18.56 34.13 19.13 32.35 17.7 30.57 18.27 28.78 16.84 27 17.41 25.22 15.97 23.43 16.54 21.65 15.11 19.87 15.68 18.08 14.25 16.3 14.82 14.52 13.39 12.73 13.96 10.95 12.53 9.17 13.1 7.38 11.67 5.6 12.24 3.82 10.81 2.03 11.38 0.25 10.95 0.25 10.79 0.25 10.64 0.25 10.48 0.25 10.32 0.25 10.17 0.25 10.01 0.25 9.85 0.25 9.7 0.25 9.54 0.25 9.38 0.25 9.23 0.25 9.07 0.25 8.91 0.25 8.76 0.25 8.6 0.25 8.45 0.25 8.29 0.25 8.13 0.25 7.98 0.25 7.82 0.25 7.66 0.25 7.51 0.25 7.35 0.25 7.19 0.25 7.04 0.25 6.88 0.25 6.72 0.25 6.57 0.25 6.41 0.25 6.25 0.25 6.1 0.25 5.94"/><path class="cls-2" d="M89.17,35.06a18.8,18.8,0,0,1-9.4,2.39,12.88,12.88,0,0,1-9.72-3.88q-3.7-3.87-3.71-10.26a14.6,14.6,0,0,1,4.13-10.7A14,14,0,0,1,80.91,8.43,17.78,17.78,0,0,1,88.6,9.92v3.64a14.81,14.81,0,0,0-8.06-2.15,10.07,10.07,0,0,0-7.74,3.25,11.87,11.87,0,0,0-3,8.42q0,5.33,2.8,8.37a9.82,9.82,0,0,0,7.6,3,11.75,11.75,0,0,0,5.69-1.31V25.31H79.74v-3h9.43Z" transform="translate(-10.75 -8.43)"/><circle class="cls-3" cx="27.89" cy="21.09" r="11.56"/><circle class="cls-4" cx="27.89" cy="21.09" r="9.08"/><circle class="cls-3" cx="27.89" cy="21.09" r="6.6"/></svg>